%YAML 1.1
%TAG !u! tag:unity3d.com,2011:
--- !u!43 &4300000
Mesh:
  m_ObjectHideFlags: 0
  m_CorrespondingSourceObject: {fileID: 0}
  m_PrefabInstance: {fileID: 0}
  m_PrefabAsset: {fileID: 0}
  m_Name: Pebble_03_Collider
  serializedVersion: 12
  m_SubMeshes:
  - serializedVersion: 2
    firstByte: 0
    indexCount: 18
    topology: 0
    baseVertex: 0
    firstVertex: 0
    vertexCount: 9
    localAABB:
      m_Center: {x: 0.039924413, y: 0.074412666, z: -0.021580067}
      m_Extent: {x: 0.21215922, y: 0.11456502, z: 0.13111734}
  m_Shapes:
    vertices: []
    shapes: []
    channels: []
    fullWeights: []
  m_BindPose: []
  m_BoneNameHashes: 
  m_RootBoneNameHash: 0
  m_BonesAABB: []
  m_VariableBoneCountWeights:
    m_Data: 
  m_MeshCompression: 0
  m_IsReadable: 0
  m_KeepVertices: 1
  m_KeepIndices: 1
  m_IndexFormat: 0
  m_IndexBuffer: 000001000200030000000200040005000600040006000700060005000800080007000600
  m_VertexData:
    serializedVersion: 3
    m_VertexCount: 9
    m_Channels:
    - stream: 0
      offset: 0
      format: 0
      dimension: 3
    - stream: 0
      offset: 12
      format: 0
      dimension: 3
    - stream: 0
      offset: 24
      format: 0
      dimension: 4
    - stream: 0
      offset: 40
      format: 2
      dimension: 4
    - stream: 0
      offset: 44
      format: 0
      dimension: 2
    - stream: 0
      offset: 0
      format: 0
      dimension: 0
    - stream: 0
      offset: 0
      format: 0
      dimension: 0
    - stream: 0
      offset: 0
      format: 0
      dimension: 0
    - stream: 0
      offset: 0
      format: 0
      dimension: 0
    - stream: 0
      offset: 0
      format: 0
      dimension: 0
    - stream: 0
      offset: 0
      format: 0
      dimension: 0
    - stream: 0
      offset: 0
      format: 0
      dimension: 0
    - stream: 0
      offset: 0
      format: 0
      dimension: 0
    - stream: 0
      offset: 0
      format: 0
      dimension: 0
    m_DataSize: 468
    _typelessdata: bac20d3ecb7624bd0417b7bd6be7c73ea41d47bfb52dfcbe373422bfdefa243e88b641bf000080bfffffffff0739e03df3ece63e1b11813e418f523df469ca3d3fa5483ffa43b5bda35d1d3f8d72be3e0bc939bfb62914bf000080bfffffffff4b58ac3df68ce43e525e30bef0c2e23d1555e03d20243fbf00bdb5bd65c6283f9b9d1ebf193289be67de3cbf000080bfffffffff6d06b93d56a9fb3e49490dbe3ee78a3db65c1cbe9da345bf9ecc2e3e8bbb1cbf92bc113f347878bebb1749bf000080bfffffffff1cb6053ef386f73e49490dbe3ee78a3db65c1cbe9da345bf9ecc2e3e8bbb1cbf40abb43e32a12fbf4ae122bf000080bfffffffff6227fc3e38246b3f525e30bef0c2e23d1555e03d20243fbf00bdb5bd65c6283f843824bf2c522abeedb63fbf000080bfffffffffc871ec3ef6936d3f475f4e3e5e83413e2e0b103cf91a003f8804513f837793be836bbb3d5fe9c2bee88f6bbf000080bfffffffff990ff63e26fd763fbac20d3ecb7624bd0417b7bd6be7c73ea41d47bfb52dfcbe3c116bbfb634bcbe56f116be000080bfffffffffbcf9ff3ec8d7783f1b11813e418f523df469ca3d3fa5483ffa43b5bda35d1d3f550e053f2488e5bea32c3abf000080bfffffffffbe0df13ed2db7b3f
  m_CompressedMesh:
    m_Vertices:
      m_NumItems: 0
      m_Range: 0
      m_Start: 0
      m_Data: 
      m_BitSize: 0
    m_UV:
      m_NumItems: 0
      m_Range: 0
      m_Start: 0
      m_Data: 
      m_BitSize: 0
    m_Normals:
      m_NumItems: 0
      m_Range: 0
      m_Start: 0
      m_Data: 
      m_BitSize: 0
    m_Tangents:
      m_NumItems: 0
      m_Range: 0
      m_Start: 0
      m_Data: 
      m_BitSize: 0
    m_Weights:
      m_NumItems: 0
      m_Data: 
      m_BitSize: 0
    m_NormalSigns:
      m_NumItems: 0
      m_Data: 
      m_BitSize: 0
    m_TangentSigns:
      m_NumItems: 0
      m_Data: 
      m_BitSize: 0
    m_FloatColors:
      m_NumItems: 0
      m_Range: 0
      m_Start: 0
      m_Data: 
      m_BitSize: 0
    m_BoneIndices:
      m_NumItems: 0
      m_Data: 
      m_BitSize: 0
    m_Triangles:
      m_NumItems: 0
      m_Data: 
      m_BitSize: 0
    m_UVInfo: 0
  m_LocalAABB:
    m_Center: {x: 0.039924413, y: 0.074412666, z: -0.021580067}
    m_Extent: {x: 0.21215922, y: 0.11456502, z: 0.13111734}
  m_MeshUsageFlags: 0
  m_CookingOptions: 30
  m_BakedConvexCollisionMesh: 
  m_BakedTriangleCollisionMesh: 
  'm_MeshMetrics[0]': 90.67437
  'm_MeshMetrics[1]': 1
  m_MeshOptimizationFlags: -1
  m_StreamData:
    serializedVersion: 2
    offset: 0
    size: 0
    path: 
  m_MeshLodInfo:
    serializedVersion: 2
    m_LodSelectionCurve:
      serializedVersion: 1
      m_LodSlope: 0
      m_LodBias: 0
    m_NumLevels: 1
    m_SubMeshes:
    - serializedVersion: 2
      m_Levels:
      - serializedVersion: 1
        m_IndexStart: 0
        m_IndexCount: 0
