%YAML 1.1
%TAG !u! tag:unity3d.com,2011:
--- !u!43 &4300000
Mesh:
  m_ObjectHideFlags: 0
  m_CorrespondingSourceObject: {fileID: 0}
  m_PrefabInstance: {fileID: 0}
  m_PrefabAsset: {fileID: 0}
  m_Name: Pebble_02_Collider
  serializedVersion: 12
  m_SubMeshes:
  - serializedVersion: 2
    firstByte: 0
    indexCount: 12
    topology: 0
    baseVertex: 0
    firstVertex: 0
    vertexCount: 8
    localAABB:
      m_Center: {x: -0.022714783, y: 0.087790914, z: 0.025540523}
      m_Extent: {x: 0.1450183, y: 0.09693562, z: 0.1302042}
  m_Shapes:
    vertices: []
    shapes: []
    channels: []
    fullWeights: []
  m_BindPose: []
  m_BoneNameHashes: 
  m_RootBoneNameHash: 0
  m_BonesAABB: []
  m_VariableBoneCountWeights:
    m_Data: 
  m_MeshCompression: 0
  m_IsReadable: 0
  m_KeepVertices: 1
  m_KeepIndices: 1
  m_IndexFormat: 0
  m_IndexBuffer: 000001000200000002000300040005000600070004000600
  m_VertexData:
    serializedVersion: 3
    m_VertexCount: 8
    m_Channels:
    - stream: 0
      offset: 0
      format: 0
      dimension: 3
    - stream: 0
      offset: 12
      format: 0
      dimension: 3
    - stream: 0
      offset: 24
      format: 0
      dimension: 4
    - stream: 0
      offset: 40
      format: 2
      dimension: 4
    - stream: 0
      offset: 44
      format: 0
      dimension: 2
    - stream: 0
      offset: 0
      format: 0
      dimension: 0
    - stream: 0
      offset: 0
      format: 0
      dimension: 0
    - stream: 0
      offset: 0
      format: 0
      dimension: 0
    - stream: 0
      offset: 0
      format: 0
      dimension: 0
    - stream: 0
      offset: 0
      format: 0
      dimension: 0
    - stream: 0
      offset: 0
      format: 0
      dimension: 0
    - stream: 0
      offset: 0
      format: 0
      dimension: 0
    - stream: 0
      offset: 0
      format: 0
      dimension: 0
    - stream: 0
      offset: 0
      format: 0
      dimension: 0
    m_DataSize: 416
    _typelessdata: 38c22bbecbeec83cc76b7cbce7bd7cbf6ca5063e9e36b7bd66a1bd3d6da2923cebdb7ebf000080bfffffffffb0d10d3f6c53353f34d2d03cf4283d3eea59d6bdb647aa3dbfa3783f3c6e64be369074bf4bc9103e81e2843e000080bfffffffffe3ad0f3fd0ba2d3f437afa3db6d315bc27dfc0bdb3634d3f04218abe295008bf2217e5be6324a33e67eb55bf000080bfffffffffa4e0073f29e22c3f4277653dc7063c3d8c7b1f3ea3860e3fcef1cbbd361f533f66fe48bf2b50c6be476ef73e000080bfffffffffa57e043fe1e8353f34d2d03cf4283d3eea59d6bdb647aa3dbfa3783f3c6e64be8ad18fbebf51733e2e0b6e3f000080bffffffffffef4743f9efead3d38c22bbecbeec83cc76b7cbce7bd7cbf6ca5063e9e36b7bd11901bbeef001dbf5f6d463f000080bfffffffff70d87a3f884ced3d4277653dc7063c3d8c7b1f3ea3860e3fcef1cbbd361f533f9a5847bf1a09d1be43e9f33e000080bffffffffffcd67b3f1368803d437afa3db6d315bc27dfc0bdb3634d3f04218abe295008bfe431103f24f23f3ddb2f533f000080bfffffffff8c0d733fb958823d
  m_CompressedMesh:
    m_Vertices:
      m_NumItems: 0
      m_Range: 0
      m_Start: 0
      m_Data: 
      m_BitSize: 0
    m_UV:
      m_NumItems: 0
      m_Range: 0
      m_Start: 0
      m_Data: 
      m_BitSize: 0
    m_Normals:
      m_NumItems: 0
      m_Range: 0
      m_Start: 0
      m_Data: 
      m_BitSize: 0
    m_Tangents:
      m_NumItems: 0
      m_Range: 0
      m_Start: 0
      m_Data: 
      m_BitSize: 0
    m_Weights:
      m_NumItems: 0
      m_Data: 
      m_BitSize: 0
    m_NormalSigns:
      m_NumItems: 0
      m_Data: 
      m_BitSize: 0
    m_TangentSigns:
      m_NumItems: 0
      m_Data: 
      m_BitSize: 0
    m_FloatColors:
      m_NumItems: 0
      m_Range: 0
      m_Start: 0
      m_Data: 
      m_BitSize: 0
    m_BoneIndices:
      m_NumItems: 0
      m_Data: 
      m_BitSize: 0
    m_Triangles:
      m_NumItems: 0
      m_Data: 
      m_BitSize: 0
    m_UVInfo: 0
  m_LocalAABB:
    m_Center: {x: -0.022714783, y: 0.087790914, z: 0.025540523}
    m_Extent: {x: 0.1450183, y: 0.09693562, z: 0.1302042}
  m_MeshUsageFlags: 0
  m_CookingOptions: 30
  m_BakedConvexCollisionMesh: 
  m_BakedTriangleCollisionMesh: 
  'm_MeshMetrics[0]': 70.818596
  'm_MeshMetrics[1]': 1
  m_MeshOptimizationFlags: -1
  m_StreamData:
    serializedVersion: 2
    offset: 0
    size: 0
    path: 
  m_MeshLodInfo:
    serializedVersion: 2
    m_LodSelectionCurve:
      serializedVersion: 1
      m_LodSlope: 0
      m_LodBias: 0
    m_NumLevels: 1
    m_SubMeshes:
    - serializedVersion: 2
      m_Levels:
      - serializedVersion: 1
        m_IndexStart: 0
        m_IndexCount: 0
